<svg id="Layer_1" data-name="Layer 1" xmlns="http://www.w3.org/2000/svg" viewBox="0 0 213.18 70.87"><defs><style>.cls-1{fill:#fff;}</style></defs><title>boop home page logo_171121</title><circle class="cls-1" cx="128.18" cy="41.14" r="2.51" transform="translate(-3.57 13.47) rotate(-5.94)"/><path class="cls-1" d="M123.89,12.85a22.58,22.58,0,1,0,22.58,22.58A22.58,22.58,0,0,0,123.89,12.85Zm0,41.17a9.89,9.89,0,1,1,9.89-9.89A9.89,9.89,0,0,1,123.89,54Z"/><path class="cls-1" d="M212.62,40a2.75,2.75,0,1,1-5.51,0V2.75a2.75,2.75,0,1,1,5.51,0Z"/><circle class="cls-1" cx="209.87" cy="53.6" r="3.3"/><path class="cls-1" d="M182.17,14.17a22.58,22.58,0,0,0-25.06,6.91V16.53a2.57,2.57,0,1,0-5.14,0V68.3a2.57,2.57,0,1,0,5.14,0V49.78a22.58,22.58,0,1,0,25.06-35.6Zm-7.63,38.7A17.44,17.44,0,1,1,192,35.44,17.44,17.44,0,0,1,174.54,52.87Z"/><path class="cls-1" d="M30.2,14.17A22.58,22.58,0,0,0,5.14,21.09V2.57A2.57,2.57,0,1,0,0,2.57V54.33a2.57,2.57,0,1,0,5.14,0V49.78A22.58,22.58,0,1,0,30.2,14.17Zm-7.61,38.7A17.44,17.44,0,1,1,40,35.43,17.44,17.44,0,0,1,22.59,52.87Z"/><circle class="cls-1" cx="77.53" cy="41.14" r="2.51" transform="translate(-3.84 8.24) rotate(-5.94)"/><path class="cls-1" d="M73.24,12.85A22.58,22.58,0,1,0,95.82,35.43,22.58,22.58,0,0,0,73.24,12.85Zm0,41.17a9.89,9.89,0,1,1,9.89-9.89A9.89,9.89,0,0,1,73.24,54Z"/></svg>