<svg id="Layer_1" data-name="Layer 1" xmlns="http://www.w3.org/2000/svg" viewBox="0 0 373.29 373.67"><title>boop_photo gallery icon</title><path d="M58.11,43.39c-2-23,11.81-40.09,33-42.62A103.1,103.1,0,0,1,103.23.08Q215.58,0,327.93,0c14.87,0,29,2.25,37.43,15.81,4.09,6.57,7.48,14.9,7.53,22.46.53,80,.42,160,.28,240,0,22.78-17.19,38.14-43,37.62,0-3.79,0-7.65,0-11.5,0-72.87,0-132.38,0-205.24,0-35-19.94-55.66-54.25-55.66-72.19,0-133.12,0-205.31,0Z"/><path d="M249.47,278.37c-7,0-14,.1-21,.15-3.15,0-6.31.19-9.46.05a5.36,5.36,0,0,1-.06-10.67c2.09-.16,4.2-.13,6.31-.18a15.83,15.83,0,0,0,15.17-19.34c-1.72-7.69-7.81-12.49-16.19-12.6-7.59-.1-15.18-.07-22.76-.13-3,0-4.82-1.45-5.47-4.05-1-3.93,1.25-6.55,5.79-6.78a15.65,15.65,0,0,0,15-14.4,70.83,70.83,0,0,0-7.78-38.33c-7.48-14.61-18.32-26.5-30.41-37.35-2.11-1.89-4.28-3.71-6.46-5.58,0,4,.16,7.67,0,11.33-.63,12.61-5.81,22.82-16.27,30.16-5.71,4-12.06,6.66-18.56,9-7.75,2.83-15.54,5.53-23.2,8.58-4.69,1.87-9.1,4.47-12.16,8.65-4.09,5.59-5.7,11.81-2.86,18.44,2.65,6.17,7.59,9.22,14.32,9.51,3.07.13,5.08,2.65,5,5.84s-2,4.89-5.22,4.94c-2.78,0-5.56,0-8.34,0-5.78.08-11.59-.13-17.34.36-8.17.7-13.87,7.85-13.66,16.5.21,8.91,5.27,14.33,14,15a4.77,4.77,0,0,1,4.41,3.28c1.56,4-.81,7.51-5.14,7.54-7.44,0-14.88-.06-22.31,0a15.9,15.9,0,0,0-14.89,21.13c2.26,6.78,8.21,10.87,15.94,10.87h183c.38,0,.75,0,1.13,0a16,16,0,0,0-.54-32Z"/><path d="M275.93,57.89q-117.9-.36-235.8,0C15,58,0,73.69,0,98.84q0,58.44,0,116.88,0,58.95,0,117.9c0,23.62,15.69,39.87,39.19,39.92q118.41.25,236.81,0c23.64-.06,39.82-17,39.82-40.67q0-116.88,0-233.76C315.86,73.94,300.85,58,275.93,57.89Zm.34,238.8C275,310.44,263.6,321.23,250,321.24q-92.65.08-185.31,0c-14.41,0-26.29-12.15-26.39-26.58a26.89,26.89,0,0,1,26.07-27.1c.82,0,1.65,0,2.82,0-5.1-9.85-6.1-19.55-.55-29.09s14.3-13.68,24.86-13.55c-1.39-3.69-3.33-7.13-3.94-10.8-1.93-11.48,2.33-20.91,10.77-28.57,5.49-5,12.22-7.85,19.08-10.37,7.11-2.61,14.36-4.87,21.36-7.74a63.06,63.06,0,0,0,12-6.55c6.78-4.71,10-11.61,10.63-19.74.6-7.58-.62-15-2.49-22.28-.15-.58-.31-1.16-.45-1.74a5.39,5.39,0,0,1,2.23-5.94,4.68,4.68,0,0,1,5.89,0C188.18,127.21,208,144.95,220,169.82a79.66,79.66,0,0,1,7.59,41.6,27.76,27.76,0,0,1-5,13.46c11.27-.09,20.1,4.09,25.58,13.77s4.51,19.27-1.27,28.66c2.71.23,5.26.24,7.72.69A26.84,26.84,0,0,1,276.27,296.69Z"/></svg>